<svg xmlns="http://www.w3.org/2000/svg" xmlns:svg="http://www.w3.org/2000/svg" xmlns:xlink="http://www.w3.org/1999/xlink" version="1.0" height="741pt" width="871pt" viewBox="265 447 879 747" ><defs><style type="text/css">
            @font-face {
                font-family: 'noto_regular';
                src: url('https://app.creately.com/diagram/assets/fonts/noto/noto-regular.woff') format('woff'),
                     url('https://app.creately.com/diagram/assets/fonts/noto/noto-regular.woff2') format('woff2');
                font-weight: normal;
                font-style: normal;
            }
        p {
            margin: 0;
        }
        </style></defs><defs><style>
            span{ display: inline-block; }
        </style></defs><g id="1y8qaccoxw"><g transform="translate(675 450)"><path d="M 15,30 L 15,30 L 15.000000000000002,30 A 15 15 0 0 1 0 15.000000000000002 L 0,15 L 0,15.000000000000002 A 15 15 0 0 1 15.000000000000002 0 L 55,0 L 55,0 L 55,0 A 15 15 0 0 1 70 15 L 70,15 L 70,15 A 15 15 0 0 1 55 30 L 15,30 Z" fill="rgba(89,88,87,1)" stroke="#595857" stroke-width="1.5" stroke-linecap="round" stroke-linejoin="round"/></g><g transform="translate(694.5, 455.5) rotate(0, 15.5, 9.5)" width="31" height="19"><text text-decoration="none" x="2" fill="rgb(255, 255, 255)" font-size="10pt" font-family="Lato"  y="15">Start</text><text text-decoration="none" x="29" fill="#4b4b4b" font-size="10pt" font-family="noto_regular"  y="15"></text></g></g><g id="16830nfqxw"><g transform="translate(660 522)"><path d="M 50,0.75 L 0.75,34.5 L 50,68.25 L 99.25,34.5 L 50,0.75" fill="rgb(35, 169, 225)" stroke="rgb(35, 169, 225)" stroke-width="1.5" stroke-linecap="round" stroke-linejoin="round" stroke-dasharray="0 0"/></g><g transform="translate(678.5, 547.5) rotate(0, 0, 0)" width="73" height="19"><text text-decoration="none" x="0" fill="#ebebeb" font-size="11pt" font-family="Lato"  y="15">Question&#160;</text><text text-decoration="none" x="64" fill="#4b4b4b" font-size="10pt" font-family="noto_regular"  y="15"></text></g><g transform="translate(702.5, 565.5) rotate(0, 0, 0)" width="15" height="19"><text text-decoration="none" x="0" fill="#ebebeb" font-size="11pt" font-family="Lato"  y="15">1&#160;</text><text text-decoration="none" x="12" fill="#4b4b4b" font-size="10pt" font-family="noto_regular"  y="15"></text></g></g><g id="2h0iv6sfr8"><g><path d="M 710,480 L 710,522" fill="none" stroke="#b6b6b3" stroke-width="1.5" stroke-linecap="round" stroke-linejoin="round"/><path d="M 710,522 L 715.75,513.304347826087 L 704.25,513.304347826087 Z" fill="rgb(182,182,179)" stroke="#b6b6b3" stroke-width="1.5" stroke-linecap="round" stroke-linejoin="round"/></g></g><g id="87nzuq0aw1"><g transform="translate(835 532)"><rect x="0" y="0" width="101" height="51" fill="rgba(89,88,87,1)" stroke="#595857" stroke-width="1.5" stroke-linecap="round" stroke-linejoin="round"/></g><g transform="translate(854.5, 548) rotate(0, 31, 9.5)" width="62" height="19"><text text-decoration="none" x="2.5" fill="rgb(255, 255, 255)" font-size="10pt" font-family="Lato"  y="15">Process&#160;</text><text text-decoration="none" x="52.5" fill="rgb(255, 255, 255)" font-size="10pt" font-family="Lato"  y="15">3</text><text text-decoration="none" x="59.5" fill="#4b4b4b" font-size="10pt" font-family="noto_regular"  y="15"></text></g></g><g id="2doxxpbcj3"><g><path d="M 760,556.5 L 797.5,556.5 L 797.5,556.75 L 797.5,557 L 835,557" fill="none" stroke="#b6b6b3" stroke-width="1.5" stroke-linecap="round" stroke-linejoin="round"/><path d="M 835,557 L 826.304347826087,551.25 L 826.304347826087,562.75 Z" fill="rgb(182,182,179)" stroke="#b6b6b3" stroke-width="1.5" stroke-linecap="round" stroke-linejoin="round"/></g></g><g id="1ciwng5sr2"><g transform="translate(1040 532)"><rect x="0" y="0" width="101" height="51" fill="rgba(89,88,87,1)" stroke="#595857" stroke-width="1.5" stroke-linecap="round" stroke-linejoin="round"/></g><g transform="translate(1059.5, 548) rotate(0, 31, 9.5)" width="62" height="19"><text text-decoration="none" x="2.5" fill="rgb(255, 255, 255)" font-size="10pt" font-family="Lato"  y="15">Process&#160;</text><text text-decoration="none" x="52.5" fill="rgb(255, 255, 255)" font-size="10pt" font-family="Lato"  y="15">4</text><text text-decoration="none" x="59.5" fill="#4b4b4b" font-size="10pt" font-family="noto_regular"  y="15"></text></g></g><g id="29pq6lrlfe"><g><path d="M 935,557 L 1040,557" fill="none" stroke="#b6b6b3" stroke-width="1.5" stroke-linecap="round" stroke-linejoin="round"/><path d="M 1040,557 L 1031.304347826087,551.25 L 1031.304347826087,562.75 Z" fill="rgb(182,182,179)" stroke="#b6b6b3" stroke-width="1.5" stroke-linecap="round" stroke-linejoin="round"/></g></g><g id="1ra3o47neq"><g transform="translate(485 532)"><rect x="0" y="0" width="101" height="51" fill="rgba(89,88,87,1)" stroke="#595857" stroke-width="1.5" stroke-linecap="round" stroke-linejoin="round"/></g><g transform="translate(504.5, 548) rotate(0, 31, 9.5)" width="62" height="19"><text text-decoration="none" x="2.5" fill="rgb(255, 255, 255)" font-size="10pt" font-family="Lato"  y="15">Process&#160;</text><text text-decoration="none" x="52.5" fill="rgb(255, 255, 255)" font-size="10pt" font-family="Lato"  y="15">1</text><text text-decoration="none" x="59.5" fill="#4b4b4b" font-size="10pt" font-family="noto_regular"  y="15"></text></g></g><g id="81bajuj3ab"><g><path d="M 660,556.5 L 623,556.5 L 623,556.75 L 623,557 L 585,557" fill="none" stroke="#b6b6b3" stroke-width="1.5" stroke-linecap="round" stroke-linejoin="round"/><path d="M 585,557 L 593.695652173913,562.75 L 593.695652173913,551.25 Z" fill="rgb(182,182,179)" stroke="#b6b6b3" stroke-width="1.5" stroke-linecap="round" stroke-linejoin="round"/></g></g><g id="1oe82qi3dd"><g transform="translate(270 532)"><rect x="0" y="0" width="101" height="51" fill="rgba(89,88,87,1)" stroke="#595857" stroke-width="1.5" stroke-linecap="round" stroke-linejoin="round"/></g><g transform="translate(289.5, 548) rotate(0, 31, 9.5)" width="62" height="19"><text text-decoration="none" x="2.5" fill="rgb(255, 255, 255)" font-size="10pt" font-family="Lato"  y="15">Process&#160;</text><text text-decoration="none" x="52.5" fill="rgb(255, 255, 255)" font-size="10pt" font-family="Lato"  y="15">2</text><text text-decoration="none" x="59.5" fill="#4b4b4b" font-size="10pt" font-family="noto_regular"  y="15"></text></g></g><g id="1h5ryondnq"><g><path d="M 485,557 L 370,557" fill="none" stroke="#b6b6b3" stroke-width="1.5" stroke-linecap="round" stroke-linejoin="round"/><path d="M 370,557 L 378.69565217391306,562.75 L 378.69565217391306,551.25 Z" fill="rgb(182,182,179)" stroke="#b6b6b3" stroke-width="1.5" stroke-linecap="round" stroke-linejoin="round"/></g></g><g id="52fob8pxay"><g transform="translate(660 710)"><path d="M 50,0.75 L 0.75,34.5 L 50,68.25 L 99.25,34.5 L 50,0.75" fill="rgb(35, 169, 225)" stroke="rgb(35, 169, 225)" stroke-width="1.5" stroke-linecap="round" stroke-linejoin="round" stroke-dasharray="0 0"/></g><g transform="translate(678.5, 735.5) rotate(0, 0, 0)" width="73" height="19"><text text-decoration="none" x="0" fill="#ebebeb" font-size="11pt" font-family="Lato"  y="15">Question&#160;</text><text text-decoration="none" x="64" fill="#4b4b4b" font-size="10pt" font-family="noto_regular"  y="15"></text></g><g transform="translate(702.5, 753.5) rotate(0, 0, 0)" width="15" height="19"><text text-decoration="none" x="0" fill="#ebebeb" font-size="11pt" font-family="Lato"  y="15">2&#160;</text><text text-decoration="none" x="12" fill="#4b4b4b" font-size="10pt" font-family="noto_regular"  y="15"></text></g></g><g id="1qswmuocxb"><g><path d="M 710,591 L 710,710" fill="none" stroke="#b6b6b3" stroke-width="1.5" stroke-linecap="round" stroke-linejoin="round"/><path d="M 710,710 L 715.75,701.304347826087 L 704.25,701.304347826087 Z" fill="rgb(182,182,179)" stroke="#b6b6b3" stroke-width="1.5" stroke-linecap="round" stroke-linejoin="round"/></g></g><g id="ak9au8rgvf"><g><path d="M 320,582 L 320,744.5 L 660,744.5" fill="none" stroke="#b6b6b3" stroke-width="1.5" stroke-linecap="round" stroke-linejoin="round"/><path d="M 660,744.5 L 651.304347826087,738.75 L 651.304347826087,750.25 Z" fill="rgb(182,182,179)" stroke="#b6b6b3" stroke-width="1.5" stroke-linecap="round" stroke-linejoin="round"/></g></g><g id="2hqkmnjrdj"><g><path d="M 1090,582 L 1090,744.5 L 760,744.5" fill="none" stroke="#b6b6b3" stroke-width="1.5" stroke-linecap="round" stroke-linejoin="round"/><path d="M 760,744.5 L 768.695652173913,750.25 L 768.695652173913,738.75 Z" fill="rgb(182,182,179)" stroke="#b6b6b3" stroke-width="1.5" stroke-linecap="round" stroke-linejoin="round"/></g></g><g id="r3mxp86mhb"><g transform="translate(485 870)"><rect x="0" y="0" width="101" height="51" fill="rgba(89,88,87,1)" stroke="#595857" stroke-width="1.5" stroke-linecap="round" stroke-linejoin="round"/></g><g transform="translate(504.5, 886) rotate(0, 31, 9.5)" width="62" height="19"><text text-decoration="none" x="2.5" fill="rgb(255, 255, 255)" font-size="10pt" font-family="Lato"  y="15">Process&#160;</text><text text-decoration="none" x="52.5" fill="rgb(255, 255, 255)" font-size="10pt" font-family="Lato"  y="15">5</text><text text-decoration="none" x="59.5" fill="#4b4b4b" font-size="10pt" font-family="noto_regular"  y="15"></text></g></g><g id="2pyiet0izr"><g><path d="M 710,779 L 710,805 L 622.5,805 L 535,805 L 535,870" fill="none" stroke="#b6b6b3" stroke-width="1.5" stroke-linecap="round" stroke-linejoin="round"/><path d="M 535,870 L 540.75,861.304347826087 L 529.25,861.304347826087 Z" fill="rgb(182,182,179)" stroke="#b6b6b3" stroke-width="1.5" stroke-linecap="round" stroke-linejoin="round"/></g></g><g id="1f4ke1jsi2"><g transform="translate(830 860)"><path d="M 50,0.75 L 0.75,34.5 L 50,68.25 L 99.25,34.5 L 50,0.75" fill="rgb(35, 169, 225)" stroke="rgb(35, 169, 225)" stroke-width="1.5" stroke-linecap="round" stroke-linejoin="round" stroke-dasharray="0 0"/></g><g transform="translate(848.5, 885.5) rotate(0, 0, 0)" width="73" height="19"><text text-decoration="none" x="0" fill="#ebebeb" font-size="11pt" font-family="Lato"  y="15">Question&#160;</text><text text-decoration="none" x="64" fill="#4b4b4b" font-size="10pt" font-family="noto_regular"  y="15"></text></g><g transform="translate(872.5, 903.5) rotate(0, 0, 0)" width="15" height="19"><text text-decoration="none" x="0" fill="#ebebeb" font-size="11pt" font-family="Lato"  y="15">3&#160;</text><text text-decoration="none" x="12" fill="#4b4b4b" font-size="10pt" font-family="noto_regular"  y="15"></text></g></g><g id="223zfsmmye"><g><path d="M 710,779 L 710,805 L 795,805 L 880,805 L 880,860" fill="none" stroke="#b6b6b3" stroke-width="1.5" stroke-linecap="round" stroke-linejoin="round"/><path d="M 880,860 L 885.75,851.304347826087 L 874.25,851.304347826087 Z" fill="rgb(182,182,179)" stroke="#b6b6b3" stroke-width="1.5" stroke-linecap="round" stroke-linejoin="round"/></g></g><g id="34y3tsv62x"><g transform="translate(485 992)"><path d="M 50,0.75 L 0.75,34.5 L 50,68.25 L 99.25,34.5 L 50,0.75" fill="rgb(35, 169, 225)" stroke="rgb(35, 169, 225)" stroke-width="1.5" stroke-linecap="round" stroke-linejoin="round" stroke-dasharray="0 0"/></g><g transform="translate(503.5, 1017.5) rotate(0, 0, 0)" width="73" height="19"><text text-decoration="none" x="0" fill="#ebebeb" font-size="11pt" font-family="Lato"  y="15">Question&#160;</text><text text-decoration="none" x="64" fill="#4b4b4b" font-size="10pt" font-family="noto_regular"  y="15"></text></g><g transform="translate(527.5, 1035.5) rotate(0, 0, 0)" width="15" height="19"><text text-decoration="none" x="0" fill="#ebebeb" font-size="11pt" font-family="Lato"  y="15">4&#160;</text><text text-decoration="none" x="12" fill="#4b4b4b" font-size="10pt" font-family="noto_regular"  y="15"></text></g></g><g id="6kk16j06xc"><g><path d="M 535,920 L 535,992" fill="none" stroke="#b6b6b3" stroke-width="1.5" stroke-linecap="round" stroke-linejoin="round"/><path d="M 535,992 L 540.75,983.304347826087 L 529.25,983.304347826087 Z" fill="rgb(182,182,179)" stroke="#b6b6b3" stroke-width="1.5" stroke-linecap="round" stroke-linejoin="round"/></g></g><g id="icknidfz5s"><g transform="translate(830 992)"><path d="M 50,0.75 L 0.75,34.5 L 50,68.25 L 99.25,34.5 L 50,0.75" fill="rgb(35, 169, 225)" stroke="rgb(35, 169, 225)" stroke-width="1.5" stroke-linecap="round" stroke-linejoin="round" stroke-dasharray="0 0"/></g><g transform="translate(848.5, 1017.5) rotate(0, 0, 0)" width="73" height="19"><text text-decoration="none" x="0" fill="#ebebeb" font-size="11pt" font-family="Lato"  y="15">Question&#160;</text><text text-decoration="none" x="64" fill="#4b4b4b" font-size="10pt" font-family="noto_regular"  y="15"></text></g><g transform="translate(872.5, 1035.5) rotate(0, 0, 0)" width="15" height="19"><text text-decoration="none" x="0" fill="#ebebeb" font-size="11pt" font-family="Lato"  y="15">5&#160;</text><text text-decoration="none" x="12" fill="#4b4b4b" font-size="10pt" font-family="noto_regular"  y="15"></text></g></g><g id="38n3b1ejiz"><g><path d="M 880,929 L 880,992" fill="none" stroke="#b6b6b3" stroke-width="1.5" stroke-linecap="round" stroke-linejoin="round"/><path d="M 880,992 L 885.75,983.304347826087 L 874.25,983.304347826087 Z" fill="rgb(182,182,179)" stroke="#b6b6b3" stroke-width="1.5" stroke-linecap="round" stroke-linejoin="round"/></g></g><g id="6j3yt7r12o"><g><path d="M 585,1026.5 L 830,1026.5" fill="none" stroke="#b6b6b3" stroke-width="1.5" stroke-linecap="round" stroke-linejoin="round"/><path d="M 830,1026.5 L 821.304347826087,1020.75 L 821.304347826087,1032.25 Z" fill="rgb(182,182,179)" stroke="#b6b6b3" stroke-width="1.5" stroke-linecap="round" stroke-linejoin="round"/></g></g><g id="20e4cfb7py"><g transform="translate(830 1140)"><rect x="0" y="0" width="101" height="51" fill="rgba(89,88,87,1)" stroke="#595857" stroke-width="1.5" stroke-linecap="round" stroke-linejoin="round"/></g><g transform="translate(849.5, 1156) rotate(0, 31, 9.5)" width="62" height="19"><text text-decoration="none" x="2.5" fill="rgb(255, 255, 255)" font-size="10pt" font-family="Lato"  y="15">Process&#160;</text><text text-decoration="none" x="52.5" fill="rgb(255, 255, 255)" font-size="10pt" font-family="Lato"  y="15">7</text><text text-decoration="none" x="59.5" fill="#4b4b4b" font-size="10pt" font-family="noto_regular"  y="15"></text></g></g><g id="gzfc1yqjns"><g><path d="M 880,1061 L 880,1140" fill="none" stroke="#b6b6b3" stroke-width="1.5" stroke-linecap="round" stroke-linejoin="round"/><path d="M 880,1140 L 885.75,1131.304347826087 L 874.25,1131.304347826087 Z" fill="rgb(182,182,179)" stroke="#b6b6b3" stroke-width="1.5" stroke-linecap="round" stroke-linejoin="round"/></g></g><g id="6glrmt426f"><g><path d="M 535,1061 L 535,1165 L 830,1165" fill="none" stroke="#b6b6b3" stroke-width="1.5" stroke-linecap="round" stroke-linejoin="round"/><path d="M 830,1165 L 821.304347826087,1159.25 L 821.304347826087,1170.75 Z" fill="rgb(182,182,179)" stroke="#b6b6b3" stroke-width="1.5" stroke-linecap="round" stroke-linejoin="round"/></g></g><g id="h5ez2561ef"><g transform="translate(995 1002)"><rect x="0" y="0" width="101" height="51" fill="rgba(89,88,87,1)" stroke="#595857" stroke-width="1.5" stroke-linecap="round" stroke-linejoin="round"/></g><g transform="translate(1014.5, 1018) rotate(0, 31, 9.5)" width="62" height="19"><text text-decoration="none" x="2.5" fill="rgb(255, 255, 255)" font-size="10pt" font-family="Lato"  y="15">Process&#160;</text><text text-decoration="none" x="52.5" fill="rgb(255, 255, 255)" font-size="10pt" font-family="Lato"  y="15">6</text><text text-decoration="none" x="59.5" fill="#4b4b4b" font-size="10pt" font-family="noto_regular"  y="15"></text></g></g><g id="2qc2ptw9tj"><g><path d="M 930,1026.5 L 962.5,1026.5 L 962.5,1026.75 L 962.5,1027 L 995,1027" fill="none" stroke="#b6b6b3" stroke-width="1.5" stroke-linecap="round" stroke-linejoin="round"/><path d="M 995,1027 L 986.304347826087,1021.25 L 986.304347826087,1032.75 Z" fill="rgb(182,182,179)" stroke="#b6b6b3" stroke-width="1.5" stroke-linecap="round" stroke-linejoin="round"/></g></g></svg>